{"title":"The.Kings.Speech.2010.720p.BRRip.x264.Feel-Free","uid":6266990,"size":2997057159,"categoryP":"video","categoryS":"hd___movies","magnet":"?xt=urn:btih:342b68fb59dc64324a0765101b5df1fc833c5a48&amp;dn=The.Kings.Speech.2010.720p.BRRip.x264.Feel-Free&amp;tr=udp%3A%2F%2Ftracker.openbittorrent.com%3A80&amp;tr=udp%3A%2F%2Fopen.demonii.com%3A1337&amp;tr=udp%3A%2F%2Ftracker.coppersurfer.tk%3A6969&amp;tr=udp%3A%2F%2Fexodus.desync.com%3A6969","seeders":1,"leechers":0,"uploader":"qwersd","files":10,"time":1300948758,"description":"Genre:Biography | Drama | History \nLanguage:English\nIMDb:http://www.imdb.com/title/tt1504320/\nSource:1080p.BluRay.X264-AMIABLE\nSubtitles:Romana\n\n\nFormat : MPEG-4\nFormat profile : Base Media\nCodec ID : isom\nFile size : 2.79 GiB\nDuration : 1h 58mn\nOverall bit rate : 3 367 Kbps\n\n\nVideo\nFormat profile : &lt;a class=&quot;__cf_email__&quot; href=&quot;/cdn-cgi/l/email-protection&quot; data-cfemail=&quot;ace4c5cbc4ece098829d&quot;&gt;[email&amp;#160;protected]&lt;/a&gt;&lt;script cf-hash='f9e31' type=&quot;text/javascript&quot;&gt;\n/* &lt;![CDATA[ */!function(){try{var t=&quot;currentScript&quot;in document?document.currentScript:function(){for(var t=document.getElementsByTagName(&quot;script&quot;),e=t.length;e--;)if(t[e].getAttribute(&quot;cf-hash&quot;))return t[e]}();if(t&amp;&amp;t.previousSibling){var e,r,n,i,c=t.previousSibling,a=c.getAttribute(&quot;data-cfemail&quot;);if(a){for(e=&quot;&quot;,r=parseInt(a.substr(0,2),16),n=2;a.length-n;n+=2)i=parseInt(a.substr(n,2),16)^r,e+=String.fromCharCode(i);e=document.createTextNode(e),c.parentNode.replaceChild(e,c)}}}catch(u){}}();/* ]]&gt; */&lt;/script&gt;\nFormat settings, CABAC : Yes\nFormat settings, ReFrames : 3 frames\nCodec ID : avc1\nCodec ID/Info : Advanced Video Coding\nDuration : 1h 58mn\nBit rate mode : Variable\nBit rate : 3 000 Kbps\nMaximum bit rate : 25.4 Mbps\nWidth : 1 280 pixels\nHeight : 720 pixels\nDisplay aspect ratio : 16:9\nFrame rate mode : Constant\nFrame rate : 23.976 fps\nColor space : YUV\nChroma subsampling : 4:2:0\nBit depth : 8 bits\nScan type : Progressive\nBits/(Pixel*Frame) : 0.136\nStream size : 2.42 GiB (87%)\nWriting library : x264\n\n\nAudio\nID : 2\nFormat : AAC\nFormat/Info : Advanced Audio Codec\nFormat version : Version 4\nFormat profile : LC\nFormat settings, SBR : No\nCodec ID : 40\nDuration : 1h 58mn\nBit rate mode : Variable\nBit rate : 434 Kbps\nMaximum bit rate : 550 Kbps\nChannel(s) : 6 channels\nChannel positions : Front: L C R, Side: L R, LFE\nSampling rate : 48.0 KHz\nStream size : 368 MiB (13%)\n\n\nPlot:\nThe story of King George VI of Britain, his impromptu ascension to the throne and the speech therapist who helped the unsure monarch become worthy of it. \n &lt;a href=&quot;\nhttp://www.pix2links.com/images/94908935640122778609.png&quot; rel=&quot;nofollow&quot; target=&quot;_NEW&quot;&gt;\nhttp://www.pix2links.com/images/94908935640122778609.png&lt;/a&gt; &lt;a href=&quot;\nhttp://www.pix2links.com/images/51552368000966651328.png&quot; rel=&quot;nofollow&quot; target=&quot;_NEW&quot;&gt;\nhttp://www.pix2links.com/images/51552368000966651328.png&lt;/a&gt; &lt;a href=&quot;\nhttp://www.pix2links.com/images/17421497804997291245.png&quot; rel=&quot;nofollow&quot; target=&quot;_NEW&quot;&gt;\nhttp://www.pix2links.com/images/17421497804997291245.png&lt;/a&gt; &lt;a href=&quot;\nhttp://www.pix2links.com/images/95766306457381228807.png&quot; rel=&quot;nofollow&quot; target=&quot;_NEW&quot;&gt;\nhttp://www.pix2links.com/images/95766306457381228807.png&lt;/a&gt; &lt;a href=&quot;\nhttp://www.pix2links.com/images/40215391002329797258.png&quot; rel=&quot;nofollow&quot; target=&quot;_NEW&quot;&gt;\nhttp://www.pix2links.com/images/40215391002329797258.png&lt;/a&gt;\n\nGreets:\n\nINK,CRYS,IMAGINE,LKRG,FXG,3Li,FLAWL3SS,TA,iLLUSiON,ViSiON,DTRG SAFCuk009,LU,TheFalcon007,MYSTiC,PrisM,Noir,WBZ,LAP,Rx,Kingdom,SAFCuk009+Fabreezy,HDLiTE,TWiZTED,ExtraTorrentRG.ELEKTRI4KA,MAGNAT,CM8\nAnd to all the other p2p grps past and present ","torrent":{"xt":"urn:btih:342b68fb59dc64324a0765101b5df1fc833c5a48","amp;dn":"The.Kings.Speech.2010.720p.BRRip.x264.Feel-Free","amp;tr":["udp%3A%2F%2Ftracker.openbittorrent.com%3A80","udp%3A%2F%2Fopen.demonii.com%3A1337","udp%3A%2F%2Ftracker.coppersurfer.tk%3A6969","udp%3A%2F%2Fexodus.desync.com%3A6969"],"infoHash":"342b68fb59dc64324a0765101b5df1fc833c5a48","infoHashBuffer":{"type":"Buffer","data":[52,43,104,251,89,220,100,50,74,7,101,16,27,93,241,252,131,60,90,72]},"announce":[],"urlList":[]}}